<svg xmlns="http://www.w3.org/2000/svg" width="1440" height="660" viewBox="0 0 720 330">
<rect width="720" height="330" fill="white"/>
<text x="54.00" y="23.00" font-family="Helvetica,Arial,sans-serif" font-size="10.0" font-weight="bold" fill="black">(a) Sharp cost and rigorous bracket</text>
<text x="412.00" y="23.00" font-family="Helvetica,Arial,sans-serif" font-size="10.0" font-weight="bold" fill="black">(b) Normalized optimal momentum profile</text>
<polyline points="54.00,282.00 358.00,282.00" fill="none" stroke="rgb(31, 31, 31)" stroke-width="0.80" stroke-linecap="round" stroke-linejoin="round"/>
<polyline points="54.00,282.00 54.00,52.00" fill="none" stroke="rgb(31, 31, 31)" stroke-width="0.80" stroke-linecap="round" stroke-linejoin="round"/>
<polyline points="54.00,282.00 54.00,286.00" fill="none" stroke="rgb(31, 31, 31)" stroke-width="0.50" stroke-linecap="round" stroke-linejoin="round"/>
<text x="49.00" y="297.00" font-family="Helvetica,Arial,sans-serif" font-size="7.0" font-weight="normal" fill="black">0.03</text>
<polyline points="110.29,282.00 110.29,286.00" fill="none" stroke="rgb(31, 31, 31)" stroke-width="0.50" stroke-linecap="round" stroke-linejoin="round"/>
<text x="105.29" y="297.00" font-family="Helvetica,Arial,sans-serif" font-size="7.0" font-weight="normal" fill="black">0.1</text>
<polyline points="161.65,282.00 161.65,286.00" fill="none" stroke="rgb(31, 31, 31)" stroke-width="0.50" stroke-linecap="round" stroke-linejoin="round"/>
<text x="156.65" y="297.00" font-family="Helvetica,Arial,sans-serif" font-size="7.0" font-weight="normal" fill="black">0.3</text>
<polyline points="217.94,282.00 217.94,286.00" fill="none" stroke="rgb(31, 31, 31)" stroke-width="0.50" stroke-linecap="round" stroke-linejoin="round"/>
<text x="212.94" y="297.00" font-family="Helvetica,Arial,sans-serif" font-size="7.0" font-weight="normal" fill="black">1</text>
<polyline points="269.30,282.00 269.30,286.00" fill="none" stroke="rgb(31, 31, 31)" stroke-width="0.50" stroke-linecap="round" stroke-linejoin="round"/>
<text x="264.30" y="297.00" font-family="Helvetica,Arial,sans-serif" font-size="7.0" font-weight="normal" fill="black">3</text>
<polyline points="325.59,282.00 325.59,286.00" fill="none" stroke="rgb(31, 31, 31)" stroke-width="0.50" stroke-linecap="round" stroke-linejoin="round"/>
<text x="320.59" y="297.00" font-family="Helvetica,Arial,sans-serif" font-size="7.0" font-weight="normal" fill="black">10</text>
<polyline points="358.00,282.00 358.00,286.00" fill="none" stroke="rgb(31, 31, 31)" stroke-width="0.50" stroke-linecap="round" stroke-linejoin="round"/>
<text x="353.00" y="297.00" font-family="Helvetica,Arial,sans-serif" font-size="7.0" font-weight="normal" fill="black">20</text>
<polyline points="50.00,271.47 54.00,271.47" fill="none" stroke="rgb(31, 31, 31)" stroke-width="0.50" stroke-linecap="round" stroke-linejoin="round"/>
<text x="25.00" y="273.97" font-family="Helvetica,Arial,sans-serif" font-size="7.0" font-weight="normal" fill="black">0.03</text>
<polyline points="50.00,240.19 54.00,240.19" fill="none" stroke="rgb(31, 31, 31)" stroke-width="0.50" stroke-linecap="round" stroke-linejoin="round"/>
<text x="25.00" y="242.69" font-family="Helvetica,Arial,sans-serif" font-size="7.0" font-weight="normal" fill="black">0.1</text>
<polyline points="50.00,211.65 54.00,211.65" fill="none" stroke="rgb(31, 31, 31)" stroke-width="0.50" stroke-linecap="round" stroke-linejoin="round"/>
<text x="25.00" y="214.15" font-family="Helvetica,Arial,sans-serif" font-size="7.0" font-weight="normal" fill="black">0.3</text>
<polyline points="50.00,180.37 54.00,180.37" fill="none" stroke="rgb(31, 31, 31)" stroke-width="0.50" stroke-linecap="round" stroke-linejoin="round"/>
<text x="25.00" y="182.87" font-family="Helvetica,Arial,sans-serif" font-size="7.0" font-weight="normal" fill="black">1</text>
<polyline points="50.00,151.83 54.00,151.83" fill="none" stroke="rgb(31, 31, 31)" stroke-width="0.50" stroke-linecap="round" stroke-linejoin="round"/>
<text x="25.00" y="154.33" font-family="Helvetica,Arial,sans-serif" font-size="7.0" font-weight="normal" fill="black">3</text>
<polyline points="50.00,120.56 54.00,120.56" fill="none" stroke="rgb(31, 31, 31)" stroke-width="0.50" stroke-linecap="round" stroke-linejoin="round"/>
<text x="25.00" y="123.06" font-family="Helvetica,Arial,sans-serif" font-size="7.0" font-weight="normal" fill="black">10</text>
<polyline points="50.00,92.02 54.00,92.02" fill="none" stroke="rgb(31, 31, 31)" stroke-width="0.50" stroke-linecap="round" stroke-linejoin="round"/>
<text x="25.00" y="94.52" font-family="Helvetica,Arial,sans-serif" font-size="7.0" font-weight="normal" fill="black">30</text>
<polyline points="50.00,60.74 54.00,60.74" fill="none" stroke="rgb(31, 31, 31)" stroke-width="0.50" stroke-linecap="round" stroke-linejoin="round"/>
<text x="25.00" y="63.24" font-family="Helvetica,Arial,sans-serif" font-size="7.0" font-weight="normal" fill="black">100</text>
<text x="186.00" y="310.00" font-family="Helvetica,Arial,sans-serif" font-size="8.0" font-weight="normal" fill="black">support ratio y=L/R</text>
<polyline points="54.00,268.29 67.45,260.76 86.41,250.11 99.86,242.52 110.29,236.60 129.25,225.78 142.70,218.02 161.65,206.92 185.53,192.56 201.27,182.77 217.94,172.00 236.90,159.15 250.35,149.54 269.30,135.21 293.19,115.69 308.92,101.91 325.59,86.55 344.55,68.25 358.00,54.81" fill="none" stroke="rgb(173, 173, 173)" stroke-width="1.00" stroke-dasharray="2,3" stroke-linecap="round" stroke-linejoin="round"/>
<polyline points="54.00,268.47 67.45,261.00 86.41,250.46 99.86,242.99 110.29,237.19 129.25,226.64 142.70,219.15 161.65,208.58 185.53,195.17 201.27,186.22 217.94,176.53 236.90,164.99 250.35,156.20 269.30,142.39 293.19,121.86 308.92,106.52 325.59,89.23 344.55,68.85 358.00,54.15" fill="none" stroke="rgb(224, 89, 26)" stroke-width="1.40" stroke-linecap="round" stroke-linejoin="round"/>
<polyline points="54.00,271.55 67.45,264.07 86.41,253.54 99.86,246.06 110.29,240.26 129.25,229.72 142.70,222.23 161.65,211.65 185.53,198.25 201.27,189.30 217.94,179.62 236.90,168.10 250.35,159.37 269.30,145.77 293.19,125.82 308.92,110.95 325.59,94.07 344.55,74.00 358.00,59.42" fill="none" stroke="rgb(26, 82, 173)" stroke-width="2.00" stroke-linecap="round" stroke-linejoin="round"/>
<polyline points="54.00,272.66 67.45,265.19 86.41,254.66 99.86,247.18 110.29,241.39 129.25,230.86 142.70,223.38 161.65,212.85 185.53,199.58 201.27,190.84 217.94,181.57 236.90,171.04 250.35,163.57 269.30,153.03 293.19,131.95 308.92,114.47 325.59,95.93 344.55,74.87 358.00,59.92" fill="none" stroke="rgb(115, 115, 115)" stroke-width="1.00" stroke-dasharray="5,3" stroke-linecap="round" stroke-linejoin="round"/>
<polyline points="58.00,38.00 73.00,38.00" fill="none" stroke="rgb(26, 82, 173)" stroke-width="2.00" stroke-linecap="round" stroke-linejoin="round"/>
<text x="76.00" y="40.50" font-family="Helvetica,Arial,sans-serif" font-size="6.5" font-weight="normal" fill="black">Galerkin N=128</text>
<polyline points="151.00,38.00 166.00,38.00" fill="none" stroke="rgb(224, 89, 26)" stroke-width="1.40" stroke-linecap="round" stroke-linejoin="round"/>
<text x="169.00" y="40.50" font-family="Helvetica,Arial,sans-serif" font-size="6.5" font-weight="normal" fill="black">Schur upper</text>
<polyline points="231.00,38.00 246.00,38.00" fill="none" stroke="rgb(115, 115, 115)" stroke-width="1.00" stroke-dasharray="5,3" stroke-linecap="round" stroke-linejoin="round"/>
<text x="249.00" y="40.50" font-family="Helvetica,Arial,sans-serif" font-size="6.5" font-weight="normal" fill="black">rigorous lower</text>
<polyline points="314.00,38.00 329.00,38.00" fill="none" stroke="rgb(173, 173, 173)" stroke-width="1.00" stroke-dasharray="2,3" stroke-linecap="round" stroke-linejoin="round"/>
<text x="332.00" y="40.50" font-family="Helvetica,Arial,sans-serif" font-size="6.5" font-weight="normal" fill="black">F(y)</text>
<polyline points="412.00,282.00 682.00,282.00" fill="none" stroke="rgb(31, 31, 31)" stroke-width="0.80" stroke-linecap="round" stroke-linejoin="round"/>
<polyline points="412.00,282.00 412.00,52.00" fill="none" stroke="rgb(31, 31, 31)" stroke-width="0.80" stroke-linecap="round" stroke-linejoin="round"/>
<polyline points="412.00,282.00 412.00,286.00" fill="none" stroke="rgb(31, 31, 31)" stroke-width="0.50" stroke-linecap="round" stroke-linejoin="round"/>
<text x="407.00" y="297.00" font-family="Helvetica,Arial,sans-serif" font-size="7.0" font-weight="normal" fill="black">0</text>
<polyline points="408.00,282.00 412.00,282.00" fill="none" stroke="rgb(31, 31, 31)" stroke-width="0.50" stroke-linecap="round" stroke-linejoin="round"/>
<text x="387.00" y="284.50" font-family="Helvetica,Arial,sans-serif" font-size="7.0" font-weight="normal" fill="black">0</text>
<polyline points="479.50,282.00 479.50,286.00" fill="none" stroke="rgb(31, 31, 31)" stroke-width="0.50" stroke-linecap="round" stroke-linejoin="round"/>
<text x="474.50" y="297.00" font-family="Helvetica,Arial,sans-serif" font-size="7.0" font-weight="normal" fill="black">0.25</text>
<polyline points="408.00,227.24 412.00,227.24" fill="none" stroke="rgb(31, 31, 31)" stroke-width="0.50" stroke-linecap="round" stroke-linejoin="round"/>
<text x="387.00" y="229.74" font-family="Helvetica,Arial,sans-serif" font-size="7.0" font-weight="normal" fill="black">0.25</text>
<polyline points="547.00,282.00 547.00,286.00" fill="none" stroke="rgb(31, 31, 31)" stroke-width="0.50" stroke-linecap="round" stroke-linejoin="round"/>
<text x="542.00" y="297.00" font-family="Helvetica,Arial,sans-serif" font-size="7.0" font-weight="normal" fill="black">0.5</text>
<polyline points="408.00,172.48 412.00,172.48" fill="none" stroke="rgb(31, 31, 31)" stroke-width="0.50" stroke-linecap="round" stroke-linejoin="round"/>
<text x="387.00" y="174.98" font-family="Helvetica,Arial,sans-serif" font-size="7.0" font-weight="normal" fill="black">0.5</text>
<polyline points="614.50,282.00 614.50,286.00" fill="none" stroke="rgb(31, 31, 31)" stroke-width="0.50" stroke-linecap="round" stroke-linejoin="round"/>
<text x="609.50" y="297.00" font-family="Helvetica,Arial,sans-serif" font-size="7.0" font-weight="normal" fill="black">0.75</text>
<polyline points="408.00,117.71 412.00,117.71" fill="none" stroke="rgb(31, 31, 31)" stroke-width="0.50" stroke-linecap="round" stroke-linejoin="round"/>
<text x="387.00" y="120.21" font-family="Helvetica,Arial,sans-serif" font-size="7.0" font-weight="normal" fill="black">0.75</text>
<polyline points="682.00,282.00 682.00,286.00" fill="none" stroke="rgb(31, 31, 31)" stroke-width="0.50" stroke-linecap="round" stroke-linejoin="round"/>
<text x="677.00" y="297.00" font-family="Helvetica,Arial,sans-serif" font-size="7.0" font-weight="normal" fill="black">1</text>
<polyline points="408.00,62.95 412.00,62.95" fill="none" stroke="rgb(31, 31, 31)" stroke-width="0.50" stroke-linecap="round" stroke-linejoin="round"/>
<text x="387.00" y="65.45" font-family="Helvetica,Arial,sans-serif" font-size="7.0" font-weight="normal" fill="black">1</text>
<text x="536.00" y="310.00" font-family="Helvetica,Arial,sans-serif" font-size="8.0" font-weight="normal" fill="black">u=x/L</text>
<polyline points="413.05,280.20 415.16,276.61 417.27,273.02 419.38,269.42 421.49,265.84 423.60,262.25 425.71,258.68 427.82,255.10 429.93,251.54 432.04,247.98 434.15,244.43 436.26,240.90 438.37,237.37 440.48,233.85 442.59,230.35 444.70,226.86 446.80,223.39 448.91,219.93 451.02,216.48 453.13,213.06 455.24,209.65 457.35,206.26 459.46,202.89 461.57,199.54 463.68,196.21 465.79,192.91 467.90,189.63 470.01,186.37 472.12,183.14 474.23,179.93 476.34,176.76 478.45,173.60 480.55,170.48 482.66,167.39 484.77,164.33 486.88,161.29 488.99,158.29 491.10,155.33 493.21,152.39 495.32,149.49 497.43,146.63 499.54,143.80 501.65,141.01 503.76,138.25 505.87,135.54 507.98,132.86 510.09,130.22 512.20,127.63 514.30,125.07 516.41,122.56 518.52,120.08 520.63,117.66 522.74,115.27 524.85,112.93 526.96,110.64 529.07,108.39 531.18,106.19 533.29,104.03 535.40,101.93 537.51,99.87 539.62,97.86 541.73,95.90 543.84,94.00 545.95,92.14 548.05,90.34 550.16,88.58 552.27,86.88 554.38,85.24 556.49,83.65 558.60,82.11 560.71,80.63 562.82,79.20 564.93,77.83 567.04,76.52 569.15,75.26 571.26,74.06 573.37,72.92 575.48,71.84 577.59,70.82 579.70,69.86 581.80,68.96 583.91,68.12 586.02,67.34 588.13,66.62 590.24,65.97 592.35,65.38 594.46,64.85 596.57,64.38 598.68,63.98 600.79,63.64 602.90,63.37 605.01,63.17 607.12,63.03 609.23,62.96 611.34,62.95 613.45,63.02 615.55,63.15 617.66,63.35 619.77,63.62 621.88,63.96 623.99,64.37 626.10,64.85 628.21,65.41 630.32,66.04 632.43,66.74 634.54,67.52 636.65,68.38 638.76,69.31 640.87,70.32 642.98,71.42 645.09,72.59 647.20,73.85 649.30,75.19 651.41,76.63 653.52,78.15 655.63,79.77 657.74,81.49 659.85,83.31 661.96,85.24 664.07,87.29 666.18,89.46 668.29,91.77 670.40,94.23 672.51,96.86 674.62,99.70 676.73,102.80 678.84,106.25 680.95,110.35" fill="none" stroke="rgb(26, 82, 173)" stroke-width="1.80" stroke-linecap="round" stroke-linejoin="round"/>
<polyline points="413.05,280.24 415.16,276.72 417.27,273.21 419.38,269.69 421.49,266.18 423.60,262.67 425.71,259.17 427.82,255.68 429.93,252.19 432.04,248.70 434.15,245.23 436.26,241.76 438.37,238.31 440.48,234.86 442.59,231.43 444.70,228.01 446.80,224.61 448.91,221.21 451.02,217.84 453.13,214.48 455.24,211.13 457.35,207.80 459.46,204.50 461.57,201.21 463.68,197.94 465.79,194.69 467.90,191.47 470.01,188.27 472.12,185.09 474.23,181.93 476.34,178.80 478.45,175.70 480.55,172.62 482.66,169.57 484.77,166.55 486.88,163.56 488.99,160.60 491.10,157.66 493.21,154.76 495.32,151.89 497.43,149.06 499.54,146.26 501.65,143.49 503.76,140.76 505.87,138.06 507.98,135.40 510.09,132.78 512.20,130.19 514.30,127.65 516.41,125.14 518.52,122.67 520.63,120.25 522.74,117.86 524.85,115.52 526.96,113.22 529.07,110.96 531.18,108.75 533.29,106.58 535.40,104.46 537.51,102.38 539.62,100.35 541.73,98.37 543.84,96.43 545.95,94.54 548.05,92.71 550.16,90.92 552.27,89.18 554.38,87.49 556.49,85.85 558.60,84.27 560.71,82.74 562.82,81.26 564.93,79.83 567.04,78.46 569.15,77.14 571.26,75.87 573.37,74.67 575.48,73.52 577.59,72.42 579.70,71.38 581.80,70.40 583.91,69.48 586.02,68.62 588.13,67.81 590.24,67.07 592.35,66.38 594.46,65.76 596.57,65.19 598.68,64.69 600.79,64.25 602.90,63.88 605.01,63.56 607.12,63.31 609.23,63.13 611.34,63.01 613.45,62.95 615.55,62.96 617.66,63.04 619.77,63.19 621.88,63.40 623.99,63.69 626.10,64.04 628.21,64.46 630.32,64.96 632.43,65.53 634.54,66.17 636.65,66.88 638.76,67.68 640.87,68.55 642.98,69.50 645.09,70.53 647.20,71.64 649.30,72.84 651.41,74.12 653.52,75.50 655.63,76.97 657.74,78.53 659.85,80.20 661.96,81.98 664.07,83.88 666.18,85.89 668.29,88.05 670.40,90.35 672.51,92.83 674.62,95.52 676.73,98.46 678.84,101.76 680.95,105.71" fill="none" stroke="rgb(38, 140, 82)" stroke-width="1.80" stroke-linecap="round" stroke-linejoin="round"/>
<polyline points="413.05,280.63 415.16,277.88 417.27,275.13 419.38,272.39 421.49,269.64 423.60,266.90 425.71,264.16 427.82,261.42 429.93,258.68 432.04,255.95 434.15,253.23 436.26,250.50 438.37,247.79 440.48,245.07 442.59,242.37 444.70,239.66 446.80,236.97 448.91,234.28 451.02,231.60 453.13,228.93 455.24,226.26 457.35,223.61 459.46,220.96 461.57,218.32 463.68,215.69 465.79,213.07 467.90,210.46 470.01,207.87 472.12,205.28 474.23,202.71 476.34,200.14 478.45,197.59 480.55,195.05 482.66,192.53 484.77,190.02 486.88,187.52 488.99,185.04 491.10,182.57 493.21,180.12 495.32,177.68 497.43,175.26 499.54,172.86 501.65,170.47 503.76,168.10 505.87,165.74 507.98,163.41 510.09,161.09 512.20,158.79 514.30,156.51 516.41,154.24 518.52,152.00 520.63,149.78 522.74,147.57 524.85,145.39 526.96,143.23 529.07,141.09 531.18,138.97 533.29,136.87 535.40,134.80 537.51,132.74 539.62,130.71 541.73,128.71 543.84,126.72 545.95,124.76 548.05,122.83 550.16,120.92 552.27,119.03 554.38,117.17 556.49,115.33 558.60,113.52 560.71,111.74 562.82,109.98 564.93,108.24 567.04,106.54 569.15,104.86 571.26,103.21 573.37,101.58 575.48,99.99 577.59,98.42 579.70,96.88 581.80,95.37 583.91,93.89 586.02,92.44 588.13,91.02 590.24,89.63 592.35,88.26 594.46,86.93 596.57,85.63 598.68,84.36 600.79,83.13 602.90,81.92 605.01,80.75 607.12,79.61 609.23,78.50 611.34,77.42 613.45,76.38 615.55,75.37 617.66,74.40 619.77,73.46 621.88,72.56 623.99,71.69 626.10,70.86 628.21,70.06 630.32,69.31 632.43,68.59 634.54,67.90 636.65,67.26 638.76,66.66 640.87,66.10 642.98,65.58 645.09,65.10 647.20,64.66 649.30,64.27 651.41,63.93 653.52,63.63 655.63,63.39 657.74,63.19 659.85,63.06 661.96,62.97 664.07,62.95 666.18,63.00 668.29,63.11 670.40,63.31 672.51,63.60 674.62,63.99 676.73,64.51 678.84,65.22 680.95,66.24" fill="none" stroke="rgb(224, 89, 26)" stroke-width="1.80" stroke-linecap="round" stroke-linejoin="round"/>
<polyline points="430.00,38.00 448.00,38.00" fill="none" stroke="rgb(26, 82, 173)" stroke-width="1.80" stroke-linecap="round" stroke-linejoin="round"/>
<text x="452.00" y="40.50" font-family="Helvetica,Arial,sans-serif" font-size="7.0" font-weight="normal" fill="black">y=0.1</text>
<polyline points="510.00,38.00 528.00,38.00" fill="none" stroke="rgb(38, 140, 82)" stroke-width="1.80" stroke-linecap="round" stroke-linejoin="round"/>
<text x="532.00" y="40.50" font-family="Helvetica,Arial,sans-serif" font-size="7.0" font-weight="normal" fill="black">y=1</text>
<polyline points="575.00,38.00 593.00,38.00" fill="none" stroke="rgb(224, 89, 26)" stroke-width="1.80" stroke-linecap="round" stroke-linejoin="round"/>
<text x="597.00" y="40.50" font-family="Helvetica,Arial,sans-serif" font-size="7.0" font-weight="normal" fill="black">y=10</text>
<text x="390.00" y="324.00" font-family="Helvetica,Arial,sans-serif" font-size="6.5" font-weight="normal" fill="black">Numerical Rayleigh-Ritz realization; theorem bounds remain analytic.</text>
</svg>
